%TF.GenerationSoftware,KiCad,Pcbnew,8.0.6*%
%TF.CreationDate,2024-12-12T11:47:33+01:00*%
%TF.ProjectId,htctboard,68746374-626f-4617-9264-2e6b69636164,rev?*%
%TF.SameCoordinates,Original*%
%TF.FileFunction,Legend,Top*%
%TF.FilePolarity,Positive*%
%FSLAX46Y46*%
G04 Gerber Fmt 4.6, Leading zero omitted, Abs format (unit mm)*
G04 Created by KiCad (PCBNEW 8.0.6) date 2024-12-12 11:47:33*
%MOMM*%
%LPD*%
G01*
G04 APERTURE LIST*
%ADD10C,0.150000*%
%ADD11C,0.120000*%
G04 APERTURE END LIST*
D10*
X157626666Y-93434819D02*
X157626666Y-94149104D01*
X157626666Y-94149104D02*
X157579047Y-94291961D01*
X157579047Y-94291961D02*
X157483809Y-94387200D01*
X157483809Y-94387200D02*
X157340952Y-94434819D01*
X157340952Y-94434819D02*
X157245714Y-94434819D01*
X158055238Y-93530057D02*
X158102857Y-93482438D01*
X158102857Y-93482438D02*
X158198095Y-93434819D01*
X158198095Y-93434819D02*
X158436190Y-93434819D01*
X158436190Y-93434819D02*
X158531428Y-93482438D01*
X158531428Y-93482438D02*
X158579047Y-93530057D01*
X158579047Y-93530057D02*
X158626666Y-93625295D01*
X158626666Y-93625295D02*
X158626666Y-93720533D01*
X158626666Y-93720533D02*
X158579047Y-93863390D01*
X158579047Y-93863390D02*
X158007619Y-94434819D01*
X158007619Y-94434819D02*
X158626666Y-94434819D01*
X157626666Y-68034819D02*
X157626666Y-68749104D01*
X157626666Y-68749104D02*
X157579047Y-68891961D01*
X157579047Y-68891961D02*
X157483809Y-68987200D01*
X157483809Y-68987200D02*
X157340952Y-69034819D01*
X157340952Y-69034819D02*
X157245714Y-69034819D01*
X158626666Y-69034819D02*
X158055238Y-69034819D01*
X158340952Y-69034819D02*
X158340952Y-68034819D01*
X158340952Y-68034819D02*
X158245714Y-68177676D01*
X158245714Y-68177676D02*
X158150476Y-68272914D01*
X158150476Y-68272914D02*
X158055238Y-68320533D01*
D11*
%TO.C,U1*%
X133223000Y-72263000D02*
X133223000Y-90297000D01*
X133223000Y-90297000D02*
X135128000Y-90297000D01*
X135128000Y-72263000D02*
X133223000Y-72263000D01*
X149352000Y-72263000D02*
X151257000Y-72263000D01*
X151257000Y-72263000D02*
X151257000Y-90297000D01*
X151257000Y-90297000D02*
X149352000Y-90297000D01*
X135115000Y-72005000D02*
X134615000Y-72005000D01*
X135115000Y-71505000D01*
X135115000Y-72005000D01*
G36*
X135115000Y-72005000D02*
G01*
X134615000Y-72005000D01*
X135115000Y-71505000D01*
X135115000Y-72005000D01*
G37*
%TO.C,J2*%
X128210000Y-92650000D02*
X128210000Y-95310000D01*
X153670000Y-92650000D02*
X128210000Y-92650000D01*
X153670000Y-92650000D02*
X153670000Y-95310000D01*
X153670000Y-95310000D02*
X128210000Y-95310000D01*
X154940000Y-92650000D02*
X156270000Y-92650000D01*
X156270000Y-92650000D02*
X156270000Y-93980000D01*
%TO.C,J1*%
X128210000Y-67250000D02*
X128210000Y-69910000D01*
X153670000Y-67250000D02*
X128210000Y-67250000D01*
X153670000Y-67250000D02*
X153670000Y-69910000D01*
X153670000Y-69910000D02*
X128210000Y-69910000D01*
X154940000Y-67250000D02*
X156270000Y-67250000D01*
X156270000Y-67250000D02*
X156270000Y-68580000D01*
%TD*%
M02*
