%TF.GenerationSoftware,KiCad,Pcbnew,8.0.6*%
%TF.CreationDate,2024-12-12T11:47:33+01:00*%
%TF.ProjectId,htctboard,68746374-626f-4617-9264-2e6b69636164,rev?*%
%TF.SameCoordinates,Original*%
%TF.FileFunction,Copper,L1,Top*%
%TF.FilePolarity,Positive*%
%FSLAX46Y46*%
G04 Gerber Fmt 4.6, Leading zero omitted, Abs format (unit mm)*
G04 Created by KiCad (PCBNEW 8.0.6) date 2024-12-12 11:47:33*
%MOMM*%
%LPD*%
G01*
G04 APERTURE LIST*
G04 Aperture macros list*
%AMRoundRect*
0 Rectangle with rounded corners*
0 $1 Rounding radius*
0 $2 $3 $4 $5 $6 $7 $8 $9 X,Y pos of 4 corners*
0 Add a 4 corners polygon primitive as box body*
4,1,4,$2,$3,$4,$5,$6,$7,$8,$9,$2,$3,0*
0 Add four circle primitives for the rounded corners*
1,1,$1+$1,$2,$3*
1,1,$1+$1,$4,$5*
1,1,$1+$1,$6,$7*
1,1,$1+$1,$8,$9*
0 Add four rect primitives between the rounded corners*
20,1,$1+$1,$2,$3,$4,$5,0*
20,1,$1+$1,$4,$5,$6,$7,0*
20,1,$1+$1,$6,$7,$8,$9,0*
20,1,$1+$1,$8,$9,$2,$3,0*%
G04 Aperture macros list end*
%TA.AperFunction,SMDPad,CuDef*%
%ADD10RoundRect,0.250000X-0.250000X-0.500000X0.250000X-0.500000X0.250000X0.500000X-0.250000X0.500000X0*%
%TD*%
%TA.AperFunction,ComponentPad*%
%ADD11R,1.700000X1.700000*%
%TD*%
%TA.AperFunction,ComponentPad*%
%ADD12O,1.700000X1.700000*%
%TD*%
%TA.AperFunction,Conductor*%
%ADD13C,0.200000*%
%TD*%
G04 APERTURE END LIST*
D10*
%TO.P,U1,1,2.4G_Ant*%
%TO.N,2.4ANT*%
X135890000Y-72390000D03*
%TO.P,U1,2,GND*%
%TO.N,GND*%
X137160000Y-72390000D03*
%TO.P,U1,3,GPIO7*%
%TO.N,7*%
X138430000Y-72390000D03*
%TO.P,U1,4,GPIO6*%
%TO.N,6*%
X139700000Y-72390000D03*
%TO.P,U1,5,GPIO5*%
%TO.N,5*%
X140970000Y-72390000D03*
%TO.P,U1,6,GPIO4*%
%TO.N,4*%
X142240000Y-72390000D03*
%TO.P,U1,7,GPIO3*%
%TO.N,3*%
X143510000Y-72390000D03*
%TO.P,U1,8,GPIO2*%
%TO.N,2*%
X144780000Y-72390000D03*
%TO.P,U1,9,GPIO1*%
%TO.N,1*%
X146050000Y-72390000D03*
%TO.P,U1,10,GPIO0*%
%TO.N,0*%
X147320000Y-72390000D03*
%TO.P,U1,11,EN*%
%TO.N,EN*%
X148590000Y-72390000D03*
%TO.P,U1,12,VDD*%
%TO.N,VDD*%
X135890000Y-90170000D03*
%TO.P,U1,13,GND*%
%TO.N,GND*%
X137160000Y-90170000D03*
%TO.P,U1,14,GPIO10*%
%TO.N,10*%
X138430000Y-90170000D03*
%TO.P,U1,15,GPIO9*%
%TO.N,9*%
X139700000Y-90170000D03*
%TO.P,U1,16,GPIO8*%
%TO.N,8*%
X140970000Y-90170000D03*
%TO.P,U1,17,GPIO18_DN*%
%TO.N,18*%
X142240000Y-90170000D03*
%TO.P,U1,18,GPIO19_DP*%
%TO.N,19*%
X143510000Y-90170000D03*
%TO.P,U1,19,GPIO20_RXD*%
%TO.N,RXD*%
X144780000Y-90170000D03*
%TO.P,U1,20,GPIO21_TXD*%
%TO.N,TXD*%
X146050000Y-90170000D03*
%TO.P,U1,21,GND*%
%TO.N,GND*%
X147320000Y-90170000D03*
%TO.P,U1,22,LoRa_Ant*%
%TO.N,LoRaANT*%
X148590000Y-90170000D03*
%TD*%
D11*
%TO.P,J2,1,Pin_1*%
%TO.N,LoRaANT*%
X154940000Y-93980000D03*
D12*
%TO.P,J2,2,Pin_2*%
%TO.N,GND*%
X152400000Y-93980000D03*
%TO.P,J2,3,Pin_3*%
%TO.N,TXD*%
X149860000Y-93980000D03*
%TO.P,J2,4,Pin_4*%
%TO.N,RXD*%
X147320000Y-93980000D03*
%TO.P,J2,5,Pin_5*%
%TO.N,19*%
X144780000Y-93980000D03*
%TO.P,J2,6,Pin_6*%
%TO.N,18*%
X142240000Y-93980000D03*
%TO.P,J2,7,Pin_7*%
%TO.N,8*%
X139700000Y-93980000D03*
%TO.P,J2,8,Pin_8*%
%TO.N,9*%
X137160000Y-93980000D03*
%TO.P,J2,9,Pin_9*%
%TO.N,10*%
X134620000Y-93980000D03*
%TO.P,J2,10,Pin_10*%
%TO.N,GND*%
X132080000Y-93980000D03*
%TO.P,J2,11,Pin_11*%
%TO.N,VDD*%
X129540000Y-93980000D03*
%TD*%
D11*
%TO.P,J1,1,Pin_1*%
%TO.N,EN*%
X154940000Y-68580000D03*
D12*
%TO.P,J1,2,Pin_2*%
%TO.N,0*%
X152400000Y-68580000D03*
%TO.P,J1,3,Pin_3*%
%TO.N,1*%
X149860000Y-68580000D03*
%TO.P,J1,4,Pin_4*%
%TO.N,2*%
X147320000Y-68580000D03*
%TO.P,J1,5,Pin_5*%
%TO.N,3*%
X144780000Y-68580000D03*
%TO.P,J1,6,Pin_6*%
%TO.N,4*%
X142240000Y-68580000D03*
%TO.P,J1,7,Pin_7*%
%TO.N,5*%
X139700000Y-68580000D03*
%TO.P,J1,8,Pin_8*%
%TO.N,6*%
X137160000Y-68580000D03*
%TO.P,J1,9,Pin_9*%
%TO.N,7*%
X134620000Y-68580000D03*
%TO.P,J1,10,Pin_10*%
%TO.N,GND*%
X132080000Y-68580000D03*
%TO.P,J1,11,Pin_11*%
%TO.N,2.4ANT*%
X129540000Y-68580000D03*
%TD*%
D13*
%TO.N,1*%
X146050000Y-71640000D02*
X149110000Y-68580000D01*
X146050000Y-72390000D02*
X146050000Y-71640000D01*
X149110000Y-68580000D02*
X149860000Y-68580000D01*
%TO.N,7*%
X138430000Y-72390000D02*
X138430000Y-71640000D01*
X135370000Y-68580000D02*
X134620000Y-68580000D01*
X138430000Y-71640000D02*
X135370000Y-68580000D01*
%TO.N,6*%
X139700000Y-72390000D02*
X139700000Y-71120000D01*
X139700000Y-71120000D02*
X137160000Y-68580000D01*
%TO.N,2*%
X144780000Y-71120000D02*
X147320000Y-68580000D01*
X144780000Y-72390000D02*
X144780000Y-71120000D01*
%TO.N,EN*%
X148590000Y-72390000D02*
X151130000Y-72390000D01*
X151130000Y-72390000D02*
X154940000Y-68580000D01*
%TO.N,2.4ANT*%
X133350000Y-72390000D02*
X129540000Y-68580000D01*
X135890000Y-72390000D02*
X133350000Y-72390000D01*
%TO.N,GND*%
X137160000Y-90920000D02*
X136640000Y-91440000D01*
X134620000Y-91440000D02*
X132080000Y-93980000D01*
X150142843Y-91722843D02*
X152400000Y-93980000D01*
X136357157Y-70837157D02*
X134337157Y-70837157D01*
X136640000Y-91440000D02*
X134620000Y-91440000D01*
X137160000Y-90170000D02*
X137160000Y-90920000D01*
X137160000Y-72390000D02*
X137160000Y-71640000D01*
X134337157Y-70837157D02*
X132080000Y-68580000D01*
X147320000Y-90170000D02*
X147320000Y-90920000D01*
X137160000Y-71640000D02*
X136357157Y-70837157D01*
X147320000Y-90920000D02*
X148122843Y-91722843D01*
X148122843Y-91722843D02*
X150142843Y-91722843D01*
%TO.N,4*%
X142240000Y-72390000D02*
X142240000Y-68580000D01*
%TO.N,0*%
X147320000Y-71640000D02*
X148122843Y-70837157D01*
X147320000Y-72390000D02*
X147320000Y-71640000D01*
X150142843Y-70837157D02*
X152400000Y-68580000D01*
X148122843Y-70837157D02*
X150142843Y-70837157D01*
%TO.N,5*%
X140970000Y-72390000D02*
X140970000Y-69850000D01*
X140970000Y-69850000D02*
X139700000Y-68580000D01*
%TO.N,3*%
X143510000Y-72390000D02*
X143510000Y-69850000D01*
X143510000Y-69850000D02*
X144780000Y-68580000D01*
%TO.N,TXD*%
X146050000Y-90170000D02*
X146050000Y-90434744D01*
X149595256Y-93980000D02*
X149860000Y-93980000D01*
X146050000Y-90434744D02*
X149595256Y-93980000D01*
%TO.N,VDD*%
X133350000Y-90170000D02*
X129540000Y-93980000D01*
X135890000Y-90170000D02*
X133350000Y-90170000D01*
%TO.N,8*%
X140970000Y-90170000D02*
X140970000Y-92710000D01*
X140970000Y-92710000D02*
X139700000Y-93980000D01*
%TO.N,LoRaANT*%
X148590000Y-90170000D02*
X151130000Y-90170000D01*
X151130000Y-90170000D02*
X154940000Y-93980000D01*
%TO.N,18*%
X142240000Y-90170000D02*
X142240000Y-93980000D01*
%TO.N,19*%
X143510000Y-92710000D02*
X144780000Y-93980000D01*
X143510000Y-90170000D02*
X143510000Y-92710000D01*
%TO.N,9*%
X139700000Y-91440000D02*
X137160000Y-93980000D01*
X139700000Y-90170000D02*
X139700000Y-91440000D01*
%TO.N,10*%
X135370000Y-93980000D02*
X134620000Y-93980000D01*
X138430000Y-90170000D02*
X138430000Y-90920000D01*
X138430000Y-90920000D02*
X135370000Y-93980000D01*
%TO.N,RXD*%
X144780000Y-90170000D02*
X144780000Y-91440000D01*
X144780000Y-91440000D02*
X147320000Y-93980000D01*
%TD*%
M02*
